<?xml version="1.0" standalone="no"?>
<!DOCTYPE svg PUBLIC "-//W3C//DTD SVG 20010904//EN"
 "http://www.w3.org/TR/2001/REC-SVG-20010904/DTD/svg10.dtd">
<svg version="1.0" xmlns="http://www.w3.org/2000/svg"
 width="250.000000pt" height="250.000000pt" viewBox="0 0 250.000000 250.000000"
 preserveAspectRatio="xMidYMid meet">
<metadata>
Created by potrace 1.14, written by Peter Selinger 2001-2017
</metadata>
<g transform="translate(0.000000,250.000000) scale(0.100000,-0.100000)"
fill="#000000" stroke="none">
<path d="M1435 2063 c-97 -18 -206 -90 -268 -178 -18 -26 -15 -24 27 13 55 47
150 97 213 111 66 14 182 5 244 -18 77 -29 179 -126 215 -204 61 -134 40 -286
-53 -392 -37 -42 -111 -95 -154 -111 -65 -23 -174 -22 -230 3 -107 48 -173
152 -172 273 1 89 42 182 106 235 26 21 45 40 43 42 -2 2 -31 -11 -65 -28
-142 -73 -233 -236 -217 -387 4 -36 38 -137 96 -281 49 -125 132 -336 185
-471 106 -270 115 -290 126 -290 17 0 40 51 153 330 63 157 138 341 166 410
154 367 173 446 144 572 -43 182 -170 318 -340 363 -52 14 -163 18 -219 8z"/>
<path d="M430 2059 c0 -13 79 -232 140 -389 39 -102 89 -234 110 -295 22 -60
59 -162 83 -225 54 -142 103 -272 156 -415 92 -251 117 -310 131 -310 10 0 30
41 57 115 23 63 53 146 67 183 39 102 40 93 -49 332 -44 117 -92 242 -105 270
-5 11 -39 99 -75 195 -130 339 -117 320 -250 381 -154 69 -181 84 -222 122
-24 22 -43 38 -43 36z"/>
<path d="M1370 1931 c-63 -24 -159 -87 -197 -129 -65 -73 -114 -198 -112 -287
1 -39 1 -40 10 -10 5 17 13 48 19 71 35 141 209 277 370 290 139 12 235 -38
283 -144 55 -125 12 -251 -120 -351 -37 -28 -3 -17 52 17 100 61 162 171 152
270 -12 112 -82 212 -185 260 -72 34 -200 40 -272 13z"/>
</g>
</svg>
